<svg id="SVGRoot" width="512px" height="512px" version="1.1" viewBox="0 0 100 100" xmlns="http://www.w3.org/2000/svg"><defs><filter id="filter8523" x="-.03995" y="-.1658" width="1.08" height="1.332" color-interpolation-filters="sRGB"><feGaussianBlur stdDeviation="1.5713635"/></filter></defs><circle cx="50" cy="50" r="50" fill="#ccc"/><path d="m9.269 25.43s25.73 34.57 23.14 38.6c17.59 0.9789 22.59-4.021 27.59 5.979-5-10 0-10-1.862-21.4 0 0-27.43-36.03-23.14-38.6z" fill="#333"/><path d="m60 70s10 0 0 5 25 10 25 10 0.2456 1.328-5 5c-10 7-13 7-13 7s-16.36-7.041-17-12c-0.4522-3.516 6-10 11-12 2.057-0.8227 0.3767-2.883-1-3z"/><text transform="scale(.9662 1.035)" x="5.1751184" y="57.969688" fill="#803300" font-size="24.13px" stroke-width="2.011" xml:space="preserve"><tspan x="5.1751184" y="57.969688" stroke-width="2.011">JS-Draw</tspan></text><text transform="scale(.9662 1.035)" x="5.1751184" y="57.969688" fill="#cc5100" filter="url(#filter8523)" font-size="24.13px" stroke-width="2.011" xml:space="preserve"><tspan x="5.1751184" y="57.969688" fill="#cc5100" stroke-width="2.011">JS-Draw</tspan></text></svg>
