<svg viewBox="-7.5 -283.3125 1403.5 701.625" width="1403.5" height="701.625" version="1.1" baseProfile="full" xmlns="http://www.w3.org/2000/svg" class="js-draw--autoresize"><style id="js-draw-style-sheet">path{stroke-linecap:round;stroke-linejoin:round;}text{white-space:pre;}</style><path d="M-3,-75Q106,-95 177,-128Q181,-130 190,-141Q191,-142 188,-133Q183,-119 187,-76Q189,-42 185,60Q180,167 177,179Q161,262 86,288Q73,293 32,288Q30,287 33,277Q34,271 33,253Q33,253 80,263Q151,280 196,228Q233,184 222,121Q220,107 184,40Q152,-22 150,-71Q149,-82 149,-115" fill="none" stroke="#803380" stroke-width="9"></path><path d="M320,-107q0-15 -4-15q-35-2 -36,45q0,32 62,28q15-2 30-35q20-43 -10-69q-29-25 -82-13q-33,7 -33,77q0,49 60,103q71,64 96,132q47,128 -61,148q-78,14 -86-23q-16-71 26-85q60-19 67,28q1,3 1,14q1,12 7-46q2-23 -73-14q-31,3 -27,78q1,25 51,38q26,7 57-3q39-13 44-82q3-45 -30-80q-11-11 -76-89q-50-60 -49-123q0-44 25-61q26-16 60-5q31,10 30,73q-2,68 -53,47q-31-13 -24-69q1-12 14-13q2,0 7,3" fill="none" stroke="#803380" stroke-width="10"></path><path d="M435,119q98,4 119-4q12-5 8,8q-9,25 -11,24q-72-45 -77-45q-35-4 -36,6q0,13 0,13" fill="none" stroke="#803380" stroke-width="11"></path><path d="M826,65q33,0 132-2q1,0 -2,43q0,9 0,9" fill="none" stroke="#803380" stroke-width="14"></path><path d="M847,69q1,212 2,213" fill="none" stroke="#803380" stroke-width="8"></path><path d="M824,286q13-1 53-2q0,0 2-1" fill="none" stroke="#803380" stroke-width="8"></path><path d="M869,71q-1,211 0,212" fill="none" stroke="#803380" stroke-width="11"></path><path d="M990,96q11-44 24-47q57-15 70,26q9,28 -15,133q-15,68 12,106q1,1 4,0" fill="none" stroke="#803380" stroke-width="10"></path><path d="M1074,202q-49-27 -74-25q-52,2 -57,53q-4,39 36,52q16,6 68,4q6,0 20-15" fill="none" stroke="#803380" stroke-width="10"></path><path d="M1003,58q44-10 55,3q27,33 26,114q0,24 -16,96q-2,13 21,32q3,3 6,3" fill="none" stroke="#803380" stroke-width="10"></path><path d="M1083,310q49-4 21-4" fill="none" stroke="#803380" stroke-width="10"></path><path d="M1121,88q51-15 56-3q4,8 3,84q0,17 -6,68q-5,46 27,54q30,7 44-10q25-27 19-87q-3-34 -7,60q-1,28 11,35q42,24 61-31q7-17 0-80q-9-97 0-112q17-28 52-8q10,5 -3,6q-33,2 -39,9q-16,17 -5,113q10,93 -2,104q-5,4 -35,11q-32,8 -32-54q0-61 -2-62" fill="none" stroke="#803380" stroke-width="10"></path><path d="M1129,87q27,7 30,24q8,35 8,142q0,33 44,37q59,7 59-103q0-1 -2,2" fill="none" stroke="#803380" stroke-width="10"></path><path d="M985.9,185.9q-16.4,27.2 -16.4,39.7q.1,38.6 1.9,40.9q10.8,13.3 16.3,15.1" fill="none" stroke="#803380" stroke-width="6.3"></path><path d="M956.8,198.7q7.1-3.8 29.2-13.7" fill="none" stroke="#803380" stroke-width="3"></path><path d="M950.2,204.8q7.1-2.5 28.2-11" fill="none" stroke="#803380" stroke-width="3"></path><path d="M947.1,214.6q34.6-13.5 29.6-13.3" fill="none" stroke="#803380" stroke-width="3"></path><path d="M951,225.2q4.8-2.4 19-10.2" fill="none" stroke="#803380" stroke-width="3"></path><path d="M948.8,234.4q4-2 15.9-8.4" fill="none" stroke="#803380" stroke-width="3"></path><path d="M946.2,244.2q5.7-2.2 21.2-12" fill="none" stroke="#803380" stroke-width="3"></path><path d="M944.9,252.1q21.5-9.5 21.6-9.7" fill="none" stroke="#803380" stroke-width="3"></path><path d="M954.1,267.1q3.4-2.1 13.3-8.4" fill="none" stroke="#803380" stroke-width="3"></path><path d="M959,269.8q2.7-.7 10.6-4" fill="none" stroke="#803380" stroke-width="3"></path><path d="M1053.9,54.5q2-.2 7.8-1.5" fill="none" stroke="#803380" stroke-width="2"></path><path d="M1059.1,59.3q11.6-2.9 11.2-3.1" fill="none" stroke="#803380" stroke-width="2"></path><path d="M1062.2,64.2q12.1-2.9 12.1-2.9" fill="none" stroke="#803380" stroke-width="2"></path><path d="M1064.8,70.5q13.4-2.4 13.5-3.1" fill="none" stroke="#803380" stroke-width="2"></path><path d="M1069.1,76.8q3.4-.7 13.2-4" fill="none" stroke="#803380" stroke-width="2"></path><path d="M1072,82.3q2.5-.5 9.5-3.2" fill="none" stroke="#803380" stroke-width="2"></path><path d="M1072,87.4q12.3-1.6 11.5-2.5" fill="none" stroke="#803380" stroke-width="2"></path><path d="M1075.4,93.5q2.5-.1 9.8-1.2" fill="none" stroke="#803380" stroke-width="2"></path><path d="M1145.4,90.5q4.7-2.2 18.2-9.9" fill="none" stroke="#803380" stroke-width="2.7"></path><path d="M1153.7,94.1q19-7.7 20.9-9.1" fill="none" stroke="#803380" stroke-width="2.7"></path><path d="M1156,104.7q20.5-8.9 21-10.6" fill="none" stroke="#803380" stroke-width="2.7"></path><path d="M1162.4,114.2q3.7-1.6 14.2-7.9" fill="none" stroke="#803380" stroke-width="2.7"></path><path d="M1166.7,126.1q10.4-4.3 10.7-6.3" fill="none" stroke="#803380" stroke-width="2.7"></path><path d="M1164.6,138.7q3.7-2.5 14.1-10.7" fill="none" stroke="#803380" stroke-width="2.9"></path><path d="M1165.4,147.7q3.8-2.1 14.1-9.9" fill="none" stroke="#803380" stroke-width="2.9"></path><path d="M1168.4,160.5q13.9-9.1 13.3-9.4" fill="none" stroke="#803380" stroke-width="2.9"></path><path d="M1169.3,172.8q8.2-5.3 8.1-5.9" fill="none" stroke="#803380" stroke-width="2.9"></path><path d="M1168.4,184.8q2.6-1.1 9.4-6.4" fill="none" stroke="#803380" stroke-width="2.9"></path><path d="M1171,195.9q1.4-1.3 5.5-5.1" fill="none" stroke="#803380" stroke-width="2.9"></path><path d="M1331.8,65.4q35.1-18.4 29.7-17.4" fill="none" stroke="#803380" stroke-width="2.2"></path><path d="M1329,75.2q7.6-5.8 31.6-21.5" fill="none" stroke="#803380" stroke-width="2.2"></path><path d="M1340,70.7q33.3-15.8 32.9-17" fill="none" stroke="#803380" stroke-width="2.2"></path><path d="M1362.5,64.4q11.6-6.2 10.1-6" fill="none" stroke="#803380" stroke-width="2.2"></path><path d="M1316.3,286.5q5.1-5.6 20.9-21.9" fill="none" stroke="#803380" stroke-width="2.2"></path><path d="M1318.2,287.8q5.7-3.7 21.3-16.7" fill="none" stroke="#803380" stroke-width="2.2"></path><path d="M1312.7,296q6.4-3.7 25.5-15.1" fill="none" stroke="#803380" stroke-width="2.2"></path><path d="M858,65.6q-2.7,4.9 -12.8,18.5" fill="none" stroke="#803380" stroke-width="4"></path><path d="M869.5,86.9q-28.7,49.4 -18.8,40.3q.6-.6 -1.4-3.3" fill="none" stroke="#803380" stroke-width="4"></path><path d="M873.6,107.7q-21.7,35.7 -21.4,40.5" fill="none" stroke="#803380" stroke-width="4"></path><path d="M869.5,157.4q-5.1,8.3 -20,33.5" fill="none" stroke="#803380" stroke-width="4"></path><path d="M872.4,177.7q-5.9,9.6 -23.7,38.1" fill="none" stroke="#803380" stroke-width="4"></path><path d="M865.5,245.3q-17.6,28.5 -17.9,27.1" fill="none" stroke="#803380" stroke-width="4"></path><path d="M869.5,262q-4.1,4.3 -16.2,17.4" fill="none" stroke="#803380" stroke-width="4"></path><path d="M864.6,89.4q-19.1,28.3 -18.3,27.7" fill="none" stroke="#803380" stroke-width="4"></path><path d="M868.7,154.2q-16.5,27.8 -18.2,26.5" fill="none" stroke="#803380" stroke-width="4"></path><path d="M866.9,173q-18.8,33.3 -20,30" fill="none" stroke="#803380" stroke-width="4"></path><path d="M866.1,105.7q-13.2,31.6 -18.7,35.5q-.4,.4 -.7,2.1" fill="none" stroke="#803380" stroke-width="4"></path><path d="M862.7,66.8q-16.2,28 -16.5,27.1" fill="none" stroke="#803380" stroke-width="4"></path><path d="M867.5,73.2q-19.3,27.5 -18.5,28.3" fill="none" stroke="#803380" stroke-width="4"></path><path d="M870.9,138.8q-22.4,33.9 -22,35.2" fill="none" stroke="#803380" stroke-width="4"></path><path d="M871.8,131.4q-24.4,28.1 -26.5,34.1" fill="none" stroke="#803380" stroke-width="4"></path><path d="M869.5,223.4q-17.1,24.9 -21.4,27.7" fill="none" stroke="#803380" stroke-width="4"></path><path d="M869.5,209.4q-4.7,8.3 -20.5,32q-.4,.5 -.3,2.6" fill="none" stroke="#803380" stroke-width="4"></path><path d="M863.6,237.1q-2.8,6 -13.6,22.9" fill="none" stroke="#803380" stroke-width="4"></path><path d="M867.9,201.8q-4.8,6.3 -18.8,25.4" fill="none" stroke="#803380" stroke-width="4"></path><path d="M37.6,260q.3,6.4 1.5,25.5" fill="none" stroke="#803380" stroke-width="2"></path><path d="M44.1,257.9q1.4,30.3 3,29.7" fill="none" stroke="#803380" stroke-width="2"></path><path d="M52.8,259.4q0,7.7 1.3,30.9" fill="none" stroke="#803380" stroke-width="2"></path><path d="M60,261.3q.5,6.6 1.6,26.4" fill="none" stroke="#803380" stroke-width="2"></path><path d="M66.9,263.4q1,22.1 2.6,26.5" fill="none" stroke="#803380" stroke-width="2"></path><path d="M73.7,263.8q5.4,25.8 3,21.9" fill="none" stroke="#803380" stroke-width="2"></path><path d="M81.7,266q.3,5.1 1,20.5" fill="none" stroke="#803380" stroke-width="2"></path><path d="M88.4,267.5q.4,3.9 .8,15.7" fill="none" stroke="#803380" stroke-width="2"></path><path d="M95,271.4q-.1,2.9 0,11.5" fill="none" stroke="#803380" stroke-width="2"></path><path d="M101,270.3q-.1,2.4 -1,9.7" fill="none" stroke="#803380" stroke-width="2"></path><path d="M105.1,271.1q.1,1.5 0,5.9" fill="none" stroke="#803380" stroke-width="2"></path><path d="M151.1,-113.2q28.9-8.4 29.4-9.1" fill="none" stroke="#803380" stroke-width="2.2"></path><path d="M153.6,-105.3q26.8-8.9 27.1-8.4" fill="none" stroke="#803380" stroke-width="2.2"></path><path d="M152.2,-99.4q7.8-1.9 31.3-6.9" fill="none" stroke="#803380" stroke-width="2.2"></path><path d="M153.5,-91.7q25.2-4.3 24-5.8" fill="none" stroke="#803380" stroke-width="2.2"></path><path d="M154.8,-83.3q27.8-4.2 26.6-5.4" fill="none" stroke="#803380" stroke-width="2.2"></path><path d="M155.5,-76.8q25-3.8 24-4.8" fill="none" stroke="#803380" stroke-width="2.2"></path><path d="M158.4,-71.2q19.1-1.6 22.3-2.7" fill="none" stroke="#803380" stroke-width="2.2"></path><path d="M154.5,-65.9q7.6-.4 30.4-3.2" fill="none" stroke="#803380" stroke-width="2.2"></path><path d="M155.7,-58.9q6.6-1.1 26.5-4.5" fill="none" stroke="#803380" stroke-width="2.2"></path><path d="M153.9,-55.5q7.4-.7 29.6-3.6" fill="none" stroke="#803380" stroke-width="2.2"></path><path d="M155.7,-51.4q7.4-1 29.6-3.8" fill="none" stroke="#803380" stroke-width="2.2"></path><path d="M154.3,-44q7.4-1 29.6-4.3" fill="none" stroke="#803380" stroke-width="2.2"></path><path d="M157,-37.1q7.4-1 29.5-4.3" fill="none" stroke="#803380" stroke-width="2.2"></path><path d="M156.2,-32.7q34.3-2.2 32.1-3.8" fill="none" stroke="#803380" stroke-width="2.2"></path><path d="M160.4,-27.1q6.4-.6 25.4-3.6" fill="none" stroke="#803380" stroke-width="2.2"></path><path d="M160.7,-21.2q6.6-.5 26.3-3.2" fill="none" stroke="#803380" stroke-width="2.2"></path><path d="M162.9,-16.5q20-1.8 20.7-1.4" fill="none" stroke="#803380" stroke-width="2.2"></path><path d="M163.5,-12.4q4.8-.7 19.3-3.1" fill="none" stroke="#803380" stroke-width="2.2"></path><path d="M164.6,-9.4Q187.3,-9.6 187,-10" fill="none" stroke="#803380" stroke-width="2.2"></path><path d="M167.4,-5Q182,-3.1 184.4,-4.5" fill="none" stroke="#803380" stroke-width="2.2"></path><path d="M169.3,.8Q172.8,.8 183.3,.2" fill="none" stroke="#803380" stroke-width="2.2"></path><path d="M171.9,5.2Q174.8,5.3 183.5,5.2" fill="none" stroke="#803380" stroke-width="2.2"></path><path d="M175.2,8.8Q187.3,9.8 187.2,9.4" fill="none" stroke="#803380" stroke-width="2.2"></path><path d="M176.5,13.6q2.7-.1 11-.2" fill="none" stroke="#803380" stroke-width="2.2"></path><path d="M175.4,18.3q2.2,.1 9,.3" fill="none" stroke="#803380" stroke-width="2.2"></path><path d="M178.6,22q.2,.2 0,.2q-.2,0 -.2-.2q0-.2 .2-.2q.2,0 .2,.2" fill="none" stroke="#803380" stroke-width="2.2"></path><path d="M185.1,67.4q13.5-.2 13.6-.4" fill="none" stroke="#803380" stroke-width="2.5"></path><path d="M188.8,70.7q2.2,.3 8.8,1.3" fill="none" stroke="#803380" stroke-width="2.5"></path><path d="M186.2,74.6q5,1.3 20.7,2.8" fill="none" stroke="#803380" stroke-width="2.5"></path><path d="M185.9,80.3q5.3,.8 21.5,2" fill="none" stroke="#803380" stroke-width="2.5"></path><path d="M184.4,84.4q29,4.3 26.8,1.7" fill="none" stroke="#803380" stroke-width="2.5"></path><path d="M188.4,89.4q5.7,.6 23.1,1.1" fill="none" stroke="#803380" stroke-width="2.5"></path><path d="M184.2,96.9q26.4,.5 26.5,.4" fill="none" stroke="#803380" stroke-width="2.5"></path><path d="M186.6,102.7q26.1,1.4 26.7,.9" fill="none" stroke="#803380" stroke-width="2.5"></path><path d="M186.3,107.7q34,1.4 31.4,1" fill="none" stroke="#803380" stroke-width="2.5"></path><path d="M187.4,112.1q7.9,.6 31.5,.7" fill="none" stroke="#803380" stroke-width="2.5"></path><path d="M185.4,117.4q9.3,0 37.3-.1" fill="none" stroke="#803380" stroke-width="2.5"></path><path d="M180,124q8.9-.4 35.7-1.7" fill="none" stroke="#803380" stroke-width="2.5"></path><path d="M179.7,130.6q38.8-2.8 41.3-1.9" fill="none" stroke="#803380" stroke-width="2.5"></path><path d="M185.1,134.2q9.7-.2 38.6-1.1" fill="none" stroke="#803380" stroke-width="2.5"></path><path d="M181.3,139.9q22.8-.5 44.7-1.5q2-.1 -7.9-.8" fill="none" stroke="#803380" stroke-width="2.5"></path><path d="M179.8,146.7q11.1-1.1 44.3-3.2" fill="none" stroke="#803380" stroke-width="2.5"></path><path d="M183.7,152.1q44.1-3.8 44.1-4" fill="none" stroke="#803380" stroke-width="2.5"></path><path d="M183.5,157.6q9.9-.5 39.3-3.8" fill="none" stroke="#803380" stroke-width="2.5"></path><path d="M178.3,163.7q30.1-1.9 41.1-4.1" fill="none" stroke="#803380" stroke-width="2.5"></path><path d="M179.1,170.9q39.6-2.2 40.7-2.7" fill="none" stroke="#803380" stroke-width="2.5"></path><path d="M182.6,173.7q29.3,2.8 36.6,1.9" fill="none" stroke="#803380" stroke-width="2.5"></path><path d="M179.7,180.9q9.4-.1 37.4-1.5" fill="none" stroke="#803380" stroke-width="2.5"></path><path d="M179.4,188.8q8.4-.7 33.6-3.2" fill="none" stroke="#803380" stroke-width="2.5"></path><path d="M179,193.9q8.7-.6 34.6-2.4" fill="none" stroke="#803380" stroke-width="2.5"></path><path d="M178.5,200.5q6.5-.4 26.1-1.8" fill="none" stroke="#803380" stroke-width="2.5"></path><path d="M173.5,205q8.4,.3 33.6-.3" fill="none" stroke="#803380" stroke-width="2.5"></path><path d="M170.4,210.1q25.1,.8 35.5-1.9" fill="none" stroke="#803380" stroke-width="2.5"></path><path d="M169.8,215q10.9,.7 26.6-1.9" fill="none" stroke="#803380" stroke-width="2.5"></path><path d="M165,222.9q35,1.3 36-.4" fill="none" stroke="#803380" stroke-width="2.5"></path><path d="M161.6,231q29.2-2.4 29.3-2.3" fill="none" stroke="#803380" stroke-width="2.5"></path><path d="M167.2,220.7q8.6-.4 34.5-2.4" fill="none" stroke="#803380" stroke-width="2.5"></path><path d="M157.7,236.7q8.4,.9 33.8-.9" fill="none" stroke="#803380" stroke-width="2.5"></path><path d="M150.1,242.2q8.1,.3 32.3,.7" fill="none" stroke="#803380" stroke-width="2.5"></path><path d="M142.9,249.5q5.5-.3 22.1-.7" fill="none" stroke="#803380" stroke-width="2.5"></path><path d="M144.5,254.3q16.9,3.4 17.1,1.3" fill="none" stroke="#803380" stroke-width="2.5"></path><path d="M267.6,182.5q23.5-10.8 23.1-12.7" fill="none" stroke="#803380" stroke-width="2.4"></path><path d="M271.8,186.1q9.3-4.1 36-19.1" fill="none" stroke="#803380" stroke-width="2.4"></path><path d="M298.2,178.6q24.7-9 23.4-13.1" fill="none" stroke="#803380" stroke-width="2.4"></path><path d="M317.9,177.9q28.3-10.1 17.5-9.3" fill="none" stroke="#803380" stroke-width="2.4"></path><path d="M328.2,182q21.8-9.7 22.2-11.5" fill="none" stroke="#803380" stroke-width="2.4"></path><path d="M337.8,185.4q10.4-4.6 13.6-8.6" fill="none" stroke="#803380" stroke-width="2.4"></path><path d="M344.5,191.2q2.2-.6 7.9-4.2" fill="none" stroke="#803380" stroke-width="2.4"></path><path d="M257.4,275.3q13.2-3.1 13-5" fill="none" stroke="#803380" stroke-width="2.2"></path><path d="M264,282.9q23.3-8.5 17.9-8.4" fill="none" stroke="#803380" stroke-width="2.2"></path><path d="M271.6,288.1q5.8-2 22.4-9.8" fill="none" stroke="#803380" stroke-width="2.2"></path><path d="M284.1,288.7q4.8-1.2 18.7-6.9" fill="none" stroke="#803380" stroke-width="2.2"></path><path d="M295.5,291.9q3.8-1 14.9-5.2" fill="none" stroke="#803380" stroke-width="2.2"></path><path d="M306.7,292.9q3.4,.1 12.6-4.7" fill="none" stroke="#803380" stroke-width="2.2"></path><path d="M323.5,-46.7q-2,5.7 -2.4,6" fill="none" stroke="#803380" stroke-width="1.6"></path><path d="M333.1,-47.6q-2.8,2.8 -11.1,11" fill="none" stroke="#803380" stroke-width="1.6"></path><path d="M344.1,-48.1q-3.2,2.9 -13,11" fill="none" stroke="#803380" stroke-width="1.6"></path><path d="M351.3,-49.8q-9.1,11.4 -8.9,12" fill="none" stroke="#803380" stroke-width="1.6"></path><path d="M358.7,-52.4q-9,13.6 -9.8,13.4" fill="none" stroke="#803380" stroke-width="1.6"></path><path d="M362.2,-140.6q2.2-.3 8.8-2.1" fill="none" stroke="#803380" stroke-width="1.3"></path><path d="M364.8,-136.7q10.2-1 8.6-2.4" fill="none" stroke="#803380" stroke-width="1.3"></path><path d="M367.1,-132.4q7.1-2 7.2-2.2" fill="none" stroke="#803380" stroke-width="1.3"></path><path d="M370.4,-128.1q1.6-.7 6.5-3" fill="none" stroke="#803380" stroke-width="1.3"></path><path d="M368.4,-121.4q1.6-.8 6.5-3.4" fill="none" stroke="#803380" stroke-width="1.3"></path><path d="M368.5,-116.4q2.1-.9 7.9-4.5" fill="none" stroke="#803380" stroke-width="1.3"></path><path d="M371,-113.6q1.5-.7 5.7-3.4" fill="none" stroke="#803380" stroke-width="1.3"></path><path d="M371.3,-108.9q1.3-.8 5.1-3.2" fill="none" stroke="#803380" stroke-width="1.3"></path><path d="M372.6,-106.2q.8-.4 3.2-1.8" fill="none" stroke="#803380" stroke-width="1.3"></path><path d="M295.2,18.1Q297.9,15.4 305.9,7.5" fill="none" stroke="#803380" stroke-width="2.6"></path><path d="M301.5,23.4q.5-.4 10.1-7.7" fill="none" stroke="#803380" stroke-width="2.6"></path><path d="M306.2,28.7q2.1-1.5 8.6-5.8" fill="none" stroke="#803380" stroke-width="2.6"></path><path d="M312.9,33.6q2.7-1.4 11.9-8.2" fill="none" stroke="#803380" stroke-width="2.6"></path><path d="M316.8,40.6q1.9-1.4 7.8-5.7" fill="none" stroke="#803380" stroke-width="2.6"></path><path d="M320,44.6q3-1.2 11.4-5.7" fill="none" stroke="#803380" stroke-width="2.6"></path><path d="M323.9,49.6q2.8-1.4 10.3-7" fill="none" stroke="#803380" stroke-width="2.6"></path><path d="M330.1,56.2q2.3-1.2 9-5.6" fill="none" stroke="#803380" stroke-width="2.6"></path><path d="M334.9,59.8q7-3.4 10.4-6.2" fill="none" stroke="#803380" stroke-width="2.6"></path><path d="M339.2,65.2q1.7-1.4 6.6-5.8" fill="none" stroke="#803380" stroke-width="2.6"></path><path d="M342.7,70.3q1.9-1.5 7.4-5.9" fill="none" stroke="#803380" stroke-width="2.6"></path><path d="M344,77.6q2.9-2.2 11.4-8.9" fill="none" stroke="#803380" stroke-width="2.6"></path><path d="M351.5,83q15.3-12 13-10.8" fill="none" stroke="#803380" stroke-width="2.6"></path><path d="M354.6,89.8q3.1-1.8 12.6-7.1" fill="none" stroke="#803380" stroke-width="2.6"></path><path d="M361.3,95.4q3-1.6 12.1-6.2" fill="none" stroke="#803380" stroke-width="2.6"></path><path d="M366.9,100.9q2.5-1.2 9.9-5" fill="none" stroke="#803380" stroke-width="2.6"></path><path d="M371.7,108.1q2-1.1 8-4.5" fill="none" stroke="#803380" stroke-width="2.6"></path><path d="M376.7,114.9q2-1.1 8.1-4.6" fill="none" stroke="#803380" stroke-width="2.6"></path><path d="M444,105.6q.4,3.6 2.5,14.1" fill="none" stroke="#803380" stroke-width="2.2"></path><path d="M451.3,104.8q-.2,2.8 -.2,11.3" fill="none" stroke="#803380" stroke-width="2.2"></path><path d="M457,101.7q.8,12.8 .6,12.8" fill="none" stroke="#803380" stroke-width="2.2"></path><path d="M461.4,103q.4,3.2 1.2,13" fill="none" stroke="#803380" stroke-width="2.2"></path><path d="M467.8,103.3q1.1,10.4 2.3,11" fill="none" stroke="#803380" stroke-width="2.2"></path><path d="M472.3,105.2q.4,2.9 2.1,11.6" fill="none" stroke="#803380" stroke-width="2.2"></path><path d="M478.7,104.6q.2,3 .8,12.1" fill="none" stroke="#803380" stroke-width="2.2"></path><path d="M484.4,108.6q.3,1.9 2.4,7.4" fill="none" stroke="#803380" stroke-width="2.2"></path><path d="M525.3,121.3q1.7,10.1 1,11" fill="none" stroke="#803380" stroke-width="2.4"></path><path d="M532.3,121.6q.6,5 1.2,9.9" fill="none" stroke="#803380" stroke-width="2.4"></path><path d="M540.7,119.5q.3,13 -.1,13.2" fill="none" stroke="#803380" stroke-width="2.4"></path><path d="M545.6,119.3q-.4,18.7 -.3,18.8" fill="none" stroke="#803380" stroke-width="2.4"></path><path d="M552.4,118.2q-1,21.8 -1.3,21.3" fill="none" stroke="#803380" stroke-width="2.4"></path><path d="M946.8,261.8q23-13.9 23.8-12.9" fill="none" stroke="#803380" stroke-width="3"></path><path d="M992.4,180.4q-10,12.4 -10.5,12.3" fill="none" stroke="#803380" stroke-width="3.2"></path><path d="M989.7,182.2q.3,.3 0,.3q-.3,0 -.3-.3q0-.3 .3-.3q.3,0 .3,.3" fill="none" stroke="#803380" stroke-width="3.2"></path><path d="M987.7,182.2q0,1.2 -.7,4.7" fill="none" stroke="#803380" stroke-width="3.2"></path><path d="M829,-180q-54-7 -62,3q-23,26 -7,156q32,268 -2,313q-34,45 -97,22q-58-21 -65-69q-19-129 135-126q29,0 39,21" fill="none" stroke="#803380" stroke-width="13"></path><path d="M644,137q-3,139 6,153q10,16 40,32" fill="none" stroke="#803380" stroke-width="10"></path><path d="M818,-179q-46,40 -56,61q-33,66 -26,202q1,23 8,91q6,69 3,119q-2,17 -16,20q0,0 -2,0" fill="none" stroke="#803380" stroke-width="10"></path><path d="M609.9,171q8.4-4.6 32.9-19.5" fill="none" stroke="#803380" stroke-width="4.6"></path><path d="M603.2,184.4q9.8-5.1 39.3-20.3q.4-.2 1.6,.2" fill="none" stroke="#803380" stroke-width="4.6"></path><path d="M602.6,195.8q10.5-4.3 42-16.9q.2-.1 .2-.6" fill="none" stroke="#803380" stroke-width="4.6"></path><path d="M599.9,201.4q42.3-10.9 41.6-10.2q-.1,0 -.1-.6" fill="none" stroke="#803380" stroke-width="4.4"></path><path d="M599.9,223.1q11.1-3 44-13.4q.5-.1 -1.8,0" fill="none" stroke="#803380" stroke-width="4.4"></path><path d="M601.8,241q10.2-3.4 40.9-12.7" fill="none" stroke="#803380" stroke-width="4.4"></path><path d="M602.5,251.2q9.4-3 37.7-11.4" fill="none" stroke="#803380" stroke-width="4.4"></path><path d="M604.4,260.8q9.9-3.7 40.2-13.4" fill="none" stroke="#803380" stroke-width="4.4"></path><path d="M605,269.8q9.9-2.6 39.3-12q.8-.3 -2.2,2.4" fill="none" stroke="#803380" stroke-width="4.4"></path><path d="M612.7,276.8q33.2-10.4 33.2-9.6" fill="none" stroke="#803380" stroke-width="4.4"></path><path d="M617.8,285.1q29.2-9.2 28.7-9.6" fill="none" stroke="#803380" stroke-width="4.4"></path><path d="M626.7,292.8q21.2-8.2 17.9-8.3" fill="none" stroke="#803380" stroke-width="4.4"></path><path d="M634.4,297.9q15-4.3 16.6-6.4" fill="none" stroke="#803380" stroke-width="4.4"></path><path d="M644,302.3q9.5-1.6 10.8-3.1" fill="none" stroke="#803380" stroke-width="4.4"></path><path d="M599.9,191.2q41.2-15.3 42.2-17.2" fill="none" stroke="#803380" stroke-width="4.4"></path><path d="M615.9,158.6q5.7-2.2 22.3-10.2" fill="none" stroke="#803380" stroke-width="4.4"></path><path d="M601.8,209.1q9.6-2.5 38.3-9.5q.6-.2 -2.5-.1" fill="none" stroke="#803380" stroke-width="4.4"></path><path d="M596.7,233.4q31-9.7 46.4-15.8" fill="none" stroke="#803380" stroke-width="4.4"></path><path d="M599.9,215.5q39.1-9.1 39-9" fill="none" stroke="#803380" stroke-width="4.4"></path><path d="M758.7,-165.6q35.6-13.5 34.7-15" fill="none" stroke="#803380" stroke-width="6.5"></path><path d="M756.1,-151.2q49.5-27 49.8-25.3" fill="none" stroke="#803380" stroke-width="5.1"></path><path d="M761.3,-145.2q41.7-18.3 40.9-20.8" fill="none" stroke="#803380" stroke-width="5.1"></path><path d="M756.8,-133.3q5.3-3.9 22.3-14.1" fill="none" stroke="#803380" stroke-width="5.1"></path><path d="M742.3,-33.5q4.2-.4 15.9-5.3" fill="none" stroke="#803380" stroke-width="5.2"></path><path d="M743.8,-20.5q17.7-5.2 16.7-6.1" fill="none" stroke="#803380" stroke-width="5.2"></path><path d="M740.7,-9.1q13.8-4.4 16.7-6.1" fill="none" stroke="#803380" stroke-width="5.2"></path><path d="M738.5,4.5Q761.7,-1.5 759,-2.3" fill="none" stroke="#803380" stroke-width="5.2"></path><path d="M738.5,20.5q4.9-1.4 19.7-5.3" fill="none" stroke="#803380" stroke-width="5.2"></path><path d="M740.7,31.1q5.6-1.2 22.1-6.1" fill="none" stroke="#803380" stroke-width="5.2"></path><path d="M740.7,46.3q22.3-6.6 22.1-6.8" fill="none" stroke="#803380" stroke-width="5.2"></path><path d="M737.7,59.2q22.5-3.4 23.5-4.5" fill="none" stroke="#803380" stroke-width="5.2"></path><path d="M742.3,69.8q23.6-5.6 23.5-7.5" fill="none" stroke="#803380" stroke-width="5.2"></path><path d="M740,82q29-9.4 28.1-10.6" fill="none" stroke="#803380" stroke-width="5.2"></path><path d="M736.9,94.9q27.3-2.3 27.4-6.8" fill="none" stroke="#803380" stroke-width="5.2"></path><path d="M744.5,108.6q25.3-8.8 23.6-9.9" fill="none" stroke="#803380" stroke-width="5.2"></path><path d="M746,119.2q5.9-2.4 22.8-11.4" fill="none" stroke="#803380" stroke-width="5.2"></path><path d="M743.4,138.2q24.2-19.8 24.4-19.6q.4,.5 -1.6,2.1" fill="none" stroke="#803380" stroke-width="5.2"></path><path d="M747.2,151.1q33.5-28.8 21.3-19" fill="none" stroke="#803380" stroke-width="5.2"></path><path d="M745.7,167.8q25.4-17.4 29.5-19.5q.7-.3 -2.9,.5" fill="none" stroke="#803380" stroke-width="5.2"></path><path d="M748.7,183.8q3.9-2.7 18.2-13.7" fill="none" stroke="#803380" stroke-width="5.2"></path><path d="M747.9,203.5q14.3-9.7 25.9-19.7" fill="none" stroke="#803380" stroke-width="5.2"></path><path d="M753.3,219.5q16.7-15 20.5-16.7" fill="none" stroke="#803380" stroke-width="5.2"></path><path d="M754,233.2q22.5-19.4 22.8-20.5" fill="none" stroke="#803380" stroke-width="5.2"></path><path d="M752.5,248.4q5.9-4.2 23.6-16.8" fill="none" stroke="#803380" stroke-width="5.2"></path><path d="M751,264.3q24.9-20.1 25.8-19" fill="none" stroke="#803380" stroke-width="5.2"></path><path d="M751.7,281q5.5-4.4 22.1-17.5" fill="none" stroke="#803380" stroke-width="5.2"></path><path d="M747.8,196q28.2-21.1 29.9-22.7" fill="none" stroke="#803380" stroke-width="4.9"></path><path d="M748.6,178.2q27.7-26.2 27-22" fill="none" stroke="#803380" stroke-width="4.9"></path><path d="M744.3,161.2q6.5-4.8 25.6-20" fill="none" stroke="#803380" stroke-width="4.9"></path><path d="M752.1,210.3q6.8-3.7 26.3-16.4" fill="none" stroke="#803380" stroke-width="4.9"></path><path d="M750.7,245.9q5.3-4.6 22.1-17.1" fill="none" stroke="#803380" stroke-width="4.9"></path><path d="M748.6,227.4q26.5-15.6 26.3-15.7" fill="none" stroke="#803380" stroke-width="4.9"></path><path d="M754.3,255.8q5.8-4.4 22.7-18.5" fill="none" stroke="#803380" stroke-width="4.9"></path><path d="M828.5,-176.2q-25.5,14 -27.9,16.7q-.1,.1 .7-.1q4.9-1.5 17.1-11.3q2.5-2 11.2-5.7q6-2.5 -22.6,12.9q-13.5,7.2 14.7-11.4q1.2-.8 5.1-2.3q3.9-1.5 -15,8q-3.8,1.9 14.8-8.8q1.3-.8 5.9-.7q3.8,0 -13.4,7.2q-4.4,1.9 -15.5,11.2q-4.3,3.6 19.7-10.7q2.6-1.5 11.8-2.7q3.4-.4 -13.4,3q-11.6,2.2 -27.4,18.4q-.4,.5 -1.1,2.5q-1,2.8 8.7-7.6q6.5-6.9 31.8-16.8q1.4-.5 5.5-1.6q2.5-.7 -5.8-6.1q-4.8-3.1 -19.8,.1q-.3,0 -.6,1.3q-.1,.2 14.4,.2q14.5,0 7.6,2.7q-3.7,1.5 -15.6,3.6q-3.5,.7 14.2-2.1q5.5-.9 -20,10.1q-17,7.3 -28.2,20.7q-2.7,3.3 -11.3,12.7q-6.8,7.4 30.3-26.2q3.6-3.4 -15,13.2q-29,25.6 -32.3,32.1q-.1,.2 -.4,.8" fill="none" stroke="#803380" stroke-width="3.2"></path><path d="M790.7,-148.4q26.3-20.2 42.9-27.4q1.1-.5 4.3-1.8" fill="none" stroke="#803380" stroke-width="3.2"></path><path d="M817.1,-169.6q29.7-7.2 34-7.1" fill="none" stroke="#803380" stroke-width="3.2"></path><path d="M820.5,-183.3q32,1.9 32.1,3q.1,.6 .4,2.7" fill="none" stroke="#803380" stroke-width="3.2"></path><path d="M821.4,-184.3q7.4,1.3 29.5,5.2q.4,.1 -1.2,1" fill="none" stroke="#803380" stroke-width="3.2"></path><path d="M822.3,-186.1q7,1.3 28.1,5.3" fill="none" stroke="#803380" stroke-width="3.2"></path><path d="M831.8,-175.8q20.5-2.7 20.3-2.3" fill="none" stroke="#803380" stroke-width="3.2"></path><path d="M831.3,-178.6q3.4-.2 13.7-.9" fill="none" stroke="#803380" stroke-width="3.2"></path><path d="M734.8,15.9Q757.7,5 758.3,5.4" fill="none" stroke="#803380" stroke-width="3.6"></path><path d="M735.3,-.9Q741.2,-1.3 758.3,-6.1" fill="none" stroke="#803380" stroke-width="3.6"></path><path d="M739.5,38.9q21.4-3.4 22.5-5.7" fill="none" stroke="#803380" stroke-width="3.6"></path><path d="M737.9,52.5q6.4-1.1 25.2-6.8" fill="none" stroke="#803380" stroke-width="3.6"></path><path d="M736.4,89.2q8-2.5 31.9-10.5" fill="none" stroke="#803380" stroke-width="3.6"></path><path d="M742.1,101.2q7.7-2 30.4-8.9" fill="none" stroke="#803380" stroke-width="3.6"></path><path d="M742.1,147.3q8-7.3 32.5-28.8" fill="none" stroke="#803380" stroke-width="3.6"></path><path d="M735.8,24.8q6.7-.7 26.2-5.8" fill="none" stroke="#803380" stroke-width="3.6"></path><path d="M737.4,-27q19.9-4.2 19.9-4.2" fill="none" stroke="#803380" stroke-width="3.6"></path><path d="M739.5,-42.2q15.6,0 15.2,.5" fill="none" stroke="#803380" stroke-width="3.6"></path><path d="M739.5,-46.8q16.4-2.5 16.7-3" fill="none" stroke="#803380" stroke-width="5.2"></path><path d="M742.5,-57.2q3.2,.5 13,1.1" fill="none" stroke="#803380" stroke-width="3.7"></path><path d="M748.5,274.5q33.8-29.4 18-13.7q-.3,.2 1.1-1.1" fill="none" stroke="#803380" stroke-width="1.6"></path><path d="M748.8,275.2q18.4-8.5 18-9.4" fill="none" stroke="#803380" stroke-width="1.6"></path><path d="M665.1,129.7q-11.4,11.9 -12.6,14.9q-3.9,10 -5.5,22.3q-1.3,10.3 -2.4,11.3" fill="none" stroke="#803380" stroke-width="2.5"></path><path d="M649.3,152.7q-.6-1.6 -3.3-6.2" fill="none" stroke="#803380" stroke-width=".9"></path><path d="M650,149.1q-.8-2.1 -4.3-8" fill="none" stroke="#803380" stroke-width=".9"></path><path d="M651.6,145.4q-5.2-8 -5.2-8" fill="none" stroke="#803380" stroke-width=".9"></path><path d="M652.7,142.1q-1.3-1.9 -5.1-7.9" fill="none" stroke="#803380" stroke-width=".9"></path><path d="M654.6,139.7q-.6-1.5 -3.1-5.8" fill="none" stroke="#803380" stroke-width=".9"></path><path d="M656.7,137.3q-.2-1.3 -1.9-4.8" fill="none" stroke="#803380" stroke-width=".9"></path><path d="M1180.125,-222.7q-8.125-17.2 -7.5-32.8q.75-19.1 8.875-21.4q.375-.1 55-3.4q12.625-.7 12.25,.9q-9.875,41.2 13.25,53q.875,.5 -.25,.5q-20.125,0 -80.625,1.1q-.375,0 1,1.1" fill="none" stroke="#803380af" stroke-width="4.625"></path><path d="M1263.125,-228.3q3.5-37.7 -5-44.5q-8.375-6.6 -8.125-5q.125,.8 -2.75-2.3" fill="none" stroke="#803380af" stroke-width="3.375"></path><path d="M1175.875,-275.4q1-2.9 .25-3q-5.875-1 -32.875,1.4q-6.75,.6 -26.875,.8q-9.25,.1 -11.5,25.4q-1.5,15.6 4.25,29.1q2,4.7 3,4.8q20,1.3 56.125-.9q10.25-.6 10.125-1.1q-.375-6.6 -1.5-5.4" fill="none" stroke="#803380af" stroke-width="3.5"></path><path d="M1181.5,-219.4q-1.125,0 -4.125,1.7" fill="none" stroke="#803380af" stroke-width="3.5"></path><path d="M1182.875,-222.3q-1.375,.9 -5.625,3.4q-1.5,.9 6.75-2.9q1.125-.4 -3.875,2.6q-.25,.1 -1,.7" fill="none" stroke="#803380af" stroke-width="1.625"></path><path d="M1180.5,-279q-1,0 -4,0q-.875,0 3.5-.2q.5,0 -.625,1.4" fill="none" stroke="#803380af" stroke-width="1.25"></path><path d="M1179,-279q-3.75,3.7 -2,2.5q1.375-.8 .75-.8q-.5,0 -1.5,.7" fill="none" stroke="#803380af" stroke-width="1.25"></path><path d="M1156.25,-231.1q-.25-.2 0-.2q.25,0 .25,.2q0,.2 -.25,.2q-.25,0 -.25-.2" fill="none" stroke="#803380af" stroke-width="2.5"></path><path d="M1139,-229.6q-.25-.2 0-.2q.25,0 .25,.2q0,.2 -.25,.2q-.25,0 -.25-.2" fill="none" stroke="#803380af" stroke-width="2.5"></path><path d="M1124.25,-227.7q-.25-.2 0-.2q.25,0 .25,.2q0,.2 -.25,.2q-.25,0 -.25-.2" fill="none" stroke="#803380af" stroke-width="2.5"></path><path d="M1161.125,-265.8q-.25-.2 0-.2q.25,0 .25,.2q0,.2 -.25,.2q-.25,0 -.25-.2" fill="none" stroke="#803380af" stroke-width="2.5"></path><path d="M1145.625,-265.8q-.25-.2 0-.2q.25,0 .25,.2q0,.2 -.25,.2q-.25,0 -.25-.2" fill="none" stroke="#803380af" stroke-width="2.5"></path><path d="M1128.375,-264.8q-.25-.2 0-.2q.25,0 .25,.2q0,.2 -.25,.2q-.25,0 -.25-.2" fill="none" stroke="#803380af" stroke-width="2.5"></path><path d="M1107.75,-221.5q-872.578125-2.1 -871.875-2.2" fill="none" stroke="#803380e5" stroke-width="3.875"></path><path d="M1107.75,-272.5q-872.578125-2.1 -871.875-2.2" fill="none" stroke="#803380e5" stroke-width="3.875"></path><path d="M236.375,-224.3q-3.875-2 -15.125-8.4q-1.75-1 2.875-2q17-3.7 6.875-3.7q-3.125,0 -12.625-3.8q-1.5-.6 1.5-1.4q1.875-.5 15.125-5.8q1.875-.8 -7.625-2.9q-10.875-2.4 -8.625-3.1q3.875-1.2 15.125-5.5q5.125-2 -1.375-2q-4.375,0 -14.125-2.6q-2.75-.7 12.25-5.2q4.875-1.5 7.25-5.2" fill="none" stroke="#803380e5" stroke-width="2.5"></path><path d="M234.5,-223.5q-19.875-4.7 -30.5-9.8q-7.375-3.5 -30-13.5" fill="none" stroke="#803380e5" stroke-width="2.875"></path><path d="M234.5,-276.4q-22.625,6.1 -40.75,12.8q-4.25,1.6 -17.25,5.6q-1.875,.6 0,6.6q1.25,3.9 -1.625,3.9" fill="none" stroke="#803380e5" stroke-width="2.875"></path><path d="M175.125,-257.8q-20.875,4.7 -21.125,4.8q-.875,.2 3.875,.6q3.125,.2 11.5,3.6q4.75,1.9 4.875,2" fill="none" stroke="#803380e5" stroke-width="1.375"></path><path d="M176.425,-250.14q-1.1,.42 -4.4,1.67" fill="none" stroke="#803380e5" stroke-width=".725"></path><path d="M175.175,-251.23q-5.2375,2.09 -5.45,2.26" fill="none" stroke="#803380e5" stroke-width=".725"></path><path d="M174.65,-252.74q-1.7375,.77 -7.0125,3.02" fill="none" stroke="#803380e5" stroke-width=".725"></path><path d="M174.125,-254.08q-7.6125,2.99 -7.75,3.1" fill="none" stroke="#803380e5" stroke-width=".725"></path><path d="M173.3875,-255.67q-9.2625,3.82 -9.4125,3.94" fill="none" stroke="#803380e5" stroke-width=".725"></path><path d="M172.2375,-256.92q-5.475,2.18 -7.6375,3.43q-1.0125,.59 -1.675,.59" fill="none" stroke="#803380e5" stroke-width=".725"></path><path d="M165.9625,-255.75q-5.25,2.52 -7.125,3.51" fill="none" stroke="#803380e5" stroke-width=".725"></path><path d="M160.1,-253.99q-2.5625,.97 -2.9375,1.25" fill="none" stroke="#803380e5" stroke-width=".725"></path><path d="M1241.2,-271.2q-28.3-.3 -56.8,2.4q-6.4,.6 -6.7,7.4q-1.2,31.7 8,31.5q15.4-.2 61.7-.8q3.2,0 -5.1-12q-2.5-3.6 -2.5-17.2q.1-12.3 -11.2,24.3q-2.2,7 -8.9-28.1q-.6-2.7 -10.3,4.1q-4.2,2.9 -20.2,4.6q-11.5,1.2 22.3,14q14.3,5.4 9.3,1.2q-4.5-3.6 -36.9-5.6q-6.7-.4 26.5-3q4.4-.4 13.7-11q3.8-4.2 -21.9,5.6q-2.2,.9 -9.1,2" fill="none" stroke="#803380af" stroke-width="15.7"></path><path d="M1259.1,-240.7q3.2-23.6 -.1-25.5q-1.8-1.1 -6.6-5.2q-3-2.6 -.3,15.3q.3,2.5 3.8,9.3q1.3,2.6 -.3-19.9q-.4-5.8 -4.6-7.1q-1-.3 .9,24q.1,1.2 1.8,4.6q1.9,3.9 -4.4-16.7q-2.3-7.7 1.8,13.3q2,10.6 7.5,14.8q.3,.2 -.6-1q-6-8.2 -5.4-17.2q0-.7 7.7,16.8q0,.1 .5-.3q1.8-1.8 -1.7-17.8q-1.1-5.2 1.9,21.2q.3,2.4 -.5,1.7" fill="none" stroke="#803380af" stroke-width="5.5"></path><path d="M1261.5,-233.5q-.2-23.9 -1.7-29.2q-4.4-14.7 -8.2-11.4q-3.2,2.8 -1.1,21.3q.4,3.9 4.8,14.8q1.1,2.8 1.1-20.2q0-2 -3.4-7.3q-.5-.8 -1.3-3.6q-3.3-11.4 2.2,18.6q.2,1.2 1.7,4.8q1.1,2.7 -.7-12q-.3-2.8 -.8-11.2q0-.2 -.4-.5q-1.3-1.3 1.4,7.5q1.7,5.7 2.2,24q0,3.2 3.2,6.3q.5,.5 0,.9" fill="none" stroke="#803380af" stroke-width="5.5"></path><path d="M1166.9,-274.2q-51.7,2 -54,3.8q-6.5,5.4 27.4,2.1q7-.7 27.9-3.3q8.9-1.1 -34.4,9.3q-5.3,1.3 -22.1,.4q-10.9-.6 43.5,3.2q2.5,.2 9-3.7q5.9-3.5 -45.2,6.9q-6.2,1.3 38,2q2.5,0 9.3-3q4.7-2.1 -48.4,2.3q-6.3,.6 -6.6-.2" fill="none" stroke="#80338089" stroke-width="12"></path><path d="M1169.8,-274.3q-13.9,.5 -55.5,1.9q-8.8,.3 34.9,3.4q4,.3 16-1.3q12.4-1.6 -49.3,7.2q-10.9,1.6 43.8,.1q1.8-.1 6.9-2q6.7-2.6 -28,6.3q-5.4,1.3 -24.4,.1q-.9,0 3.4,.6q22.1,3.2 34-.9q3.8-1.3 15.5-2.8" fill="none" stroke="#80338089" stroke-width="12"></path><path d="M234.8,-238q30.9-1.8 48.7,.1q1.2,.1 4.9-.7" fill="none" stroke="#803380e5" stroke-width="2.5"></path><path d="M233.3,-249.5q49.1-1.5 59.9,.9q4.8,1.1 19.7-.8" fill="none" stroke="#803380e5" stroke-width="2.5"></path><path d="M234.7,-262.7q97.7-2.2 99.3-2.2" fill="none" stroke="#803380e5" stroke-width="2.5"></path><path d="M1102.9,-236.9q-58.4-1.7 -65.3-1.3" fill="none" stroke="#803380e5" stroke-width="3.1"></path><path d="M1102.8,-250.9q-8.6-2.9 -16.5-3q-12.9-.2 -51.5,2.1q-3.3,.2 -13.2-.5" fill="none" stroke="#803380e5" stroke-width="3.1"></path><path d="M227.875,357.7q8.125,17.2 7.5,32.8q-.75,19.1 -8.875,21.4q-.375,.1 -55,3.4q-12.625,.7 -12.25-.9q9.875-41.2 -13.25-53q-.875-.5 .25-.5q20.125,0 80.625-1.1q.375,0 -1-1.1" fill="none" stroke="#803380ba" stroke-width="4.625"></path><path d="M144.875,363.3q-3.5,37.7 5,44.5q8.375,6.6 8.125,5q-.125-.8 2.75,2.3" fill="none" stroke="#803380ba" stroke-width="3.375"></path><path d="M232.125,410.4q-1,2.9 -.25,3q5.875,1 32.875-1.4q6.75-.6 26.875-.8q9.25-.1 11.5-25.4q1.5-15.6 -4.25-29.1q-2-4.7 -3-4.8q-20-1.3 -56.125,.9q-10.25,.6 -10.125,1.1q.375,6.6 1.5,5.4" fill="none" stroke="#803380ba" stroke-width="3.5"></path><path d="M226.5,354.4q1.125,0 4.125-1.7" fill="none" stroke="#803380ba" stroke-width="3.5"></path><path d="M225.125,357.3q1.375-.9 5.625-3.4q1.5-.9 -6.75,2.9q-1.125,.4 3.875-2.6q.25-.1 1-.7" fill="none" stroke="#803380ba" stroke-width="1.625"></path><path d="M227.5,414q1,0 4,0q.875,0 -3.5,.2q-.5,0 .625-1.4" fill="none" stroke="#803380ba" stroke-width="1.25"></path><path d="M229,414q3.75-3.7 2-2.5q-1.375,.8 -.75,.8q.5,0 1.5-.7" fill="none" stroke="#803380ba" stroke-width="1.25"></path><path d="M251.75,366.1q.25,.2 0,.2q-.25,0 -.25-.2q0-.2 .25-.2q.25,0 .25,.2" fill="none" stroke="#803380ba" stroke-width="2.5"></path><path d="M269,364.6q.25,.2 0,.2q-.25,0 -.25-.2q0-.2 .25-.2q.25,0 .25,.2" fill="none" stroke="#803380ba" stroke-width="2.5"></path><path d="M283.75,362.7q.25,.2 0,.2q-.25,0 -.25-.2q0-.2 .25-.2q.25,0 .25,.2" fill="none" stroke="#803380ba" stroke-width="2.5"></path><path d="M300.25,356.5q872.578125,2.1 871.875,2.2" fill="none" stroke="#803380e5" stroke-width="3.875"></path><path d="M300.25,407.5q872.578125,2.1 871.875,2.2" fill="none" stroke="#803380e5" stroke-width="3.875"></path><path d="M1171.625,359.3q3.875,2 15.125,8.4q1.75,1 -2.875,2q-17,3.7 -6.875,3.7q3.125,0 12.625,3.8q1.5,.6 -1.5,1.4q-1.875,.5 -15.125,5.8q-1.875,.8 7.625,2.9q10.875,2.4 8.625,3.1q-3.875,1.2 -15.125,5.5q-5.125,2 1.375,2q4.375,0 14.125,2.6q2.75,.7 -12.25,5.2q-4.875,1.5 -7.25,5.2" fill="none" stroke="#803380e5" stroke-width="2.5"></path><path d="M1173.5,358.5q19.875,4.7 30.5,9.8q7.375,3.5 30,13.5" fill="none" stroke="#803380e5" stroke-width="2.875"></path><path d="M1173.5,411.4q22.625-6.1 40.75-12.8q4.25-1.6 17.25-5.6q1.875-.6 0-6.6q-1.25-3.9 1.625-3.9" fill="none" stroke="#803380e5" stroke-width="2.875"></path><path d="M1232.875,392.8q20.875-4.7 21.125-4.8q.875-.2 -3.875-.6q-3.125-.2 -11.5-3.6q-4.75-1.9 -4.875-2" fill="none" stroke="#803380e5" stroke-width="1.375"></path><path d="M1231.575,385.14q1.1-.42 4.4-1.67" fill="none" stroke="#803380e5" stroke-width=".725"></path><path d="M1232.825,386.23q5.2375-2.09 5.45-2.26" fill="none" stroke="#803380e5" stroke-width=".725"></path><path d="M1233.35,387.74q1.7375-.77 7.0125-3.02" fill="none" stroke="#803380e5" stroke-width=".725"></path><path d="M1233.875,389.08q7.6125-2.99 7.75-3.1" fill="none" stroke="#803380e5" stroke-width=".725"></path><path d="M1234.6125,390.67q9.2625-3.82 9.4125-3.94" fill="none" stroke="#803380e5" stroke-width=".725"></path><path d="M1235.7625,391.92q5.475-2.18 7.6375-3.43q1.0125-.59 1.675-.59" fill="none" stroke="#803380e5" stroke-width=".725"></path><path d="M1242.0375,390.75q5.25-2.52 7.125-3.51" fill="none" stroke="#803380e5" stroke-width=".725"></path><path d="M1247.9,388.99q2.5625-.97 2.9375-1.25" fill="none" stroke="#803380e5" stroke-width=".725"></path><path d="M166.8,406.2q28.3,.3 56.8-2.4q6.4-.6 6.7-7.4q1.2-31.7 -8-31.5q-15.4,.2 -61.7,.8q-3.2,0 5.1,12q2.5,3.6 2.5,17.2q-.1,12.3 11.2-24.3q2.2-7 8.9,28.1q.6,2.7 10.3-4.1q4.2-2.9 20.2-4.6q11.5-1.2 -22.3-14q-14.3-5.4 -9.3-1.2q4.5,3.6 36.9,5.6q6.7,.4 -26.5,3q-4.4,.4 -13.7,11q-3.8,4.2 21.9-5.6q2.2-.9 9.1-2" fill="none" stroke="#803380ba" stroke-width="15.7"></path><path d="M148.9,375.7q-3.2,23.6 .1,25.5q1.8,1.1 6.6,5.2q3,2.6 .3-15.3q-.3-2.5 -3.8-9.3q-1.3-2.6 .3,19.9q.4,5.8 4.6,7.1q1,.3 -.9-24q-.1-1.2 -1.8-4.6q-1.9-3.9 4.4,16.7q2.3,7.7 -1.8-13.3q-2-10.6 -7.5-14.8q-.3-.2 .6,1q6,8.2 5.4,17.2q0,.7 -7.7-16.8q0-.1 -.5,.3q-1.8,1.8 1.7,17.8q1.1,5.2 -1.9-21.2q-.3-2.4 .5-1.7" fill="none" stroke="#803380ba" stroke-width="5.5"></path><path d="M146.5,368.5q.2,23.9 1.7,29.2q4.4,14.7 8.2,11.4q3.2-2.8 1.1-21.3q-.4-3.9 -4.8-14.8q-1.1-2.8 -1.1,20.2q0,2 3.4,7.3q.5,.8 1.3,3.6q3.3,11.4 -2.2-18.6q-.2-1.2 -1.7-4.8q-1.1-2.7 .7,12q.3,2.8 .8,11.2q0,.2 .4,.5q1.3,1.3 -1.4-7.5q-1.7-5.7 -2.2-24q0-3.2 -3.2-6.3q-.5-.5 0-.9" fill="none" stroke="#803380ba" stroke-width="5.5"></path><path d="M241.1,409.2q51.7-2 54-3.8q6.5-5.4 -27.4-2.1q-7,.7 -27.9,3.3q-8.9,1.1 34.4-9.3q5.3-1.3 22.1-.4q10.9,.6 -43.5-3.2q-2.5-.2 -9,3.7q-5.9,3.5 45.2-6.9q6.2-1.3 -38-2q-2.5,0 -9.3,3q-4.7,2.1 48.4-2.3q6.3-.6 6.6,.2" fill="none" stroke="#80338089" stroke-width="12"></path><path d="M238.2,409.3q13.9-.5 55.5-1.9q8.8-.3 -34.9-3.4q-4-.3 -16,1.3q-12.4,1.6 49.3-7.2q10.9-1.6 -43.8-.1q-1.8,.1 -6.9,2q-6.7,2.6 28-6.3q5.4-1.3 24.4-.1q.9,0 -3.4-.6q-22.1-3.2 -34,.9q-3.8,1.3 -15.5,2.8" fill="none" stroke="#80338089" stroke-width="12"></path><path d="M1173.2,373q-30.9,1.8 -48.7-.1q-1.2-.1 -4.9,.7" fill="none" stroke="#803380e5" stroke-width="2.5"></path><path d="M1174.7,384.5q-49.1,1.5 -59.9-.9q-4.8-1.1 -19.7,.8" fill="none" stroke="#803380e5" stroke-width="2.5"></path><path d="M1173.3,397.7q-97.7,2.2 -99.3,2.2" fill="none" stroke="#803380e5" stroke-width="2.5"></path><path d="M305.1,371.9q58.4,1.7 65.3,1.3" fill="none" stroke="#803380e5" stroke-width="3.1"></path><path d="M305.2,385.9q8.6,2.9 16.5,3q12.9,.2 51.5-2.1q3.3-.2 13.2,.5" fill="none" stroke="#803380e5" stroke-width="3.1"></path><path d="M247.775,401.1q.25,.2 0,.2q-.25,0 -.25-.2q0-.2 .25-.2q.25,0 .25,.2" fill="none" stroke="#803380af" stroke-width="2.5"></path><path d="M263.275,401.1q.25,.2 0,.2q-.25,0 -.25-.2q0-.2 .25-.2q.25,0 .25,.2" fill="none" stroke="#803380af" stroke-width="2.5"></path><path d="M280.525,400.1q.25,.2 0,.2q-.25,0 -.25-.2q0-.2 .25-.2q.25,0 .25,.2" fill="none" stroke="#803380af" stroke-width="2.5"></path></svg>